PathFileType	4	(X/Y/Z)	/Users/visionmauri/1_7_1_f_Sports2D/1_7_1_f_Sports2D_m_person00.trc
DataRate	CameraRate	NumFrames	NumMarkers	Units	OrigDataRate	OrigDataStartFrame	OrigNumFrames
30.0	30.0	10	22	m	30.0	48	389
Frame#	Time	Hip			RHip			RKnee			RAnkle			RBigToe			RSmallToe			RHeel			LHip			LKnee			LAnkle			LBigToe			LSmallToe			LHeel			Neck			Head			Nose			RShoulder			RElbow			RWrist			LShoulder			LElbow			LWrist			
		X1	Y1	Z1	X2	Y2	Z2	X3	Y3	Z3	X4	Y4	Z4	X5	Y5	Z5	X6	Y6	Z6	X7	Y7	Z7	X8	Y8	Z8	X9	Y9	Z9	X10	Y10	Z10	X11	Y11	Z11	X12	Y12	Z12	X13	Y13	Z13	X14	Y14	Z14	X15	Y15	Z15	X16	Y16	Z16	X17	Y17	Z17	X18	Y18	Z18	X19	Y19	Z19	X20	Y20	Z20	X21	Y21	Z21	X22	Y22	Z22
48	1.6041237113402063	2.107893339799158	0.49999471851487093	0.0301	2.159669843758787	0.3840377089655609	0.0301	1.7052814580060536	0.07788900931075288	0.129	1.291502815373087	-0.22898556781431953	0.023	1.2001271518945333	-0.20642249745174926	0.2179	1.2361426257511654	-0.27535330600373736	0.1804	1.241824834530239	-0.2764376017892285	-0.0119	2.008960168692413	0.5772304834811623	0.0301	1.6783892354182988	0.3640870476661342	0.129	1.6711687787511138	0.34657987750273683	0.023	1.7283180629858754	0.42600114383081084	0.2179	1.6665957574287193	0.4028617623238768	0.1804	1.6724752145675033	0.3297326706724793	-0.0119	2.498034962864062	0.9528028082059568	0.0008	2.4944117714694287	1.183099670367367	0.0655	2.410770818723545	1.0523910867117323	0.1076	2.608097874285743	0.7469379751019767	-0.01275	2.4839246667720203	0.42645620804342926	0.0702	2.27708487832682	0.26302986429287817	0.1076	2.4206501604973796	1.0554655793770549	-0.01275	2.177545724530549	0.8789730659939563	0.0702	2.120293175754721	0.8447525780299139	0.1076
49	1.6375429553264604	2.1041390129077127	0.49902714368793094	0.0301	2.1538106939798607	0.3839756556124704	0.0301	1.7090780092213076	0.0798355052964967	0.129	1.2916703408958135	-0.22913814122805387	0.023	1.217258871866662	-0.20649428161449362	0.2179	1.2440759547663383	-0.2747247121621046	0.1804	1.241314321974732	-0.27901137249502506	-0.0119	2.006913920791782	0.5765736818357732	0.0301	1.6813759638544368	0.3655514937302052	0.129	1.6820629915804306	0.3516692910680271	0.023	1.7458943509453897	0.43735741801896105	0.2179	1.6753606695335854	0.39958881531510826	0.1804	1.68381393415707	0.3382692210401665	-0.0119	2.506130440823059	0.9509560276723353	0.0008	2.5039930420512206	1.1738287068239832	0.0655	2.4176710251653186	1.0481035897889415	0.1076	2.6128352676220503	0.74521146257964	-0.01275	2.4848336017234596	0.4265540878409599	0.0702	2.2835377006949797	0.26895963934596673	0.1076	2.420719274276387	1.0524600553135508	-0.01275	2.1736593713206585	0.8893081303069561	0.0702	2.114113468434318	0.8485635946179524	0.1076
50	1.6709621993127148	2.100937331950223	0.49918336241166616	0.0301	2.1468134001529524	0.3857082061182965	0.0301	1.7101844613084074	0.08035435858434432	0.129	1.2934482613933873	-0.22702801999823957	0.023	1.2288771987798757	-0.20737227094490251	0.2179	1.2479156622008116	-0.27541809753738583	0.1804	1.242326160637767	-0.27709813673381956	-0.0119	2.0039015033285796	0.5773621512304126	0.0301	1.6821465569939613	0.36730048647181796	0.129	1.689969262097442	0.35224454223102375	0.023	1.7591160741642258	0.4406895250632432	0.2179	1.6918119616530662	0.4022637994931267	0.1804	1.692288933634697	0.34064089126191355	-0.0119	2.513362130082423	0.9492637494531053	0.0008	2.5147842583651294	1.1613779967035898	0.0655	2.4252409863892197	1.0461371982733985	0.1076	2.6172880860559333	0.7418563591864112	-0.01275	2.4878636215698746	0.42643123474947414	0.0702	2.2868052358687274	0.2734288674071422	0.1076	2.420022284513412	1.0513130043593442	-0.01275	2.1776286985587654	0.9006933694023488	0.0702	2.1063016116393576	0.852584177928188	0.1076
51	1.704381443298969	2.0996310472001745	0.5022627644998243	0.0301	2.146240817187459	0.3899169350604031	0.0301	1.7081260719415368	0.08020780181391154	0.129	1.2951964208103277	-0.22488630075544666	0.023	1.2343449820838548	-0.21084677635697405	0.2179	1.2534030728348635	-0.2825709589655996	0.1804	1.241638256651845	-0.27469796084910775	-0.0119	2.001602449362282	0.582776508688993	0.0301	1.682194978297468	0.3692593759977579	0.129	1.6962550328315884	0.352450694770737	0.023	1.7393261070225958	0.42218493806110047	0.2179	1.6975642648804457	0.40700655544267395	0.1804	1.7016869607325482	0.3426885542860768	-0.0119	2.5156269535199023	0.9465082942471172	0.0008	2.5270003210658865	1.1495115589000897	0.0655	2.4358959640090467	1.0458403810982773	0.1076	2.62067690485879	0.738770328615822	-0.01275	2.490508804377578	0.4265389706272401	0.0702	2.2863432669871044	0.27577965731598164	0.1076	2.414574380889768	1.0528358899560608	-0.01275	2.172873508394786	0.9033402416043586	0.0702	2.09877840693475	0.8576591869932657	0.1076
52	1.7378006872852234	2.0989937733947306	0.5077293361717115	0.0301	2.150433740841421	0.3955638677745432	0.0301	1.7072430475048355	0.08195775960716324	0.129	1.2957785026702526	-0.22407372453609714	0.023	1.236476290154503	-0.21238013659530447	0.2179	1.2583507898343729	-0.2891111235583214	0.1804	1.2407148707404436	-0.2738815080168238	-0.0119	2.0008736066643067	0.5895432738388442	0.0301	1.6834220407538028	0.36907322305877277	0.129	1.6986140707187947	0.3524340109311173	0.023	1.6913927705940173	0.3859457203949633	0.2179	1.6858250687127232	0.40561335186174596	0.1804	1.7063799023129422	0.3439164350991945	-0.0119	2.5154527231811294	0.9443973495794734	0.0008	2.53925568884337	1.1397009369422717	0.0655	2.4527151355945813	1.0433489846686586	0.1076	2.6233381207786093	0.7380197147900461	-0.01275	2.490439342476751	0.4267920684765375	0.0702	2.284456606206551	0.27783213914528987	0.1076	2.407801124720877	1.0556953172184922	-0.01275	2.1607397031869047	0.9011175843077773	0.0702	2.0915720231531085	0.8652322914412633	0.1076
53	1.7712199312714776	2.0963083282513577	0.5118069096963309	0.0301	2.1509501510843743	0.39853922763237465	0.0301	1.7088336184437334	0.0851960979485481	0.129	1.295212783633372	-0.22451020300033628	0.023	1.2373724810168398	-0.21121180218011096	0.2179	1.2579922177373035	-0.29124165082627274	0.1804	1.2412205261427505	-0.2730156921327106	-0.0119	1.99829593264165	0.5913658455798966	0.0301	1.6872765188120233	0.36686736394160374	0.129	1.693383619010865	0.3486479080827364	0.023	1.6549437974777597	0.3572294800837893	0.2179	1.668447224640549	0.3966220953015902	0.1804	1.6976456066845262	0.3362527566294414	-0.0119	2.517095292188589	0.9450531485459478	0.0008	2.5512816111362895	1.129891807557238	0.0655	2.4723417108515293	1.0381456964699352	0.1076	2.6258982939625333	0.737871612860606	-0.01275	2.4880707570537215	0.426518272316551	0.0702	2.2813388679758444	0.2791139610475336	0.1076	2.4052673178213	1.057789311098842	-0.01275	2.1489741348046008	0.8996070595098407	0.0702	2.0834306659559982	0.874083275944831	0.1076
54	1.804639175257732	2.091343131679539	0.5121014631370673	0.0301	2.1464247953727056	0.3973322341723586	0.0301	1.708028814880856	0.08548298337756953	0.129	1.293888918871486	-0.2257428341416287	0.023	1.235582810220179	-0.21211632081731852	0.2179	1.2551907213430906	-0.2954200768170455	0.1804	1.2393268350622306	-0.2713936471413584	-0.0119	1.9921732861423924	0.5883799465060904	0.0301	1.6916040663790577	0.36523177904652576	0.129	1.6834717757230413	0.3418748261711532	0.023	1.6566416946392042	0.3586512372853109	0.2179	1.6616436535303345	0.39161000313383104	0.1804	1.680726122993847	0.3213386004800647	-0.0119	2.5202401314606764	0.9474745557346204	0.0008	2.5623581462660545	1.120587675914964	0.0655	2.486692998955903	1.0336788323542028	0.1076	2.6274533520206558	0.7356891474413463	-0.01275	2.484399530723665	0.4249710787564291	0.0702	2.276164064760719	0.2780463850196537	0.1076	2.4049780237898637	1.0587399249240066	-0.01275	2.13874716026394	0.8988694238393623	0.0702	2.075145917380352	0.8800814207946728	0.1076
55	1.8380584192439862	2.0874977228853924	0.5105784925154014	0.0301	2.1430367679736766	0.3952989950120491	0.0301	1.7025125241328278	0.08162063534390519	0.129	1.2929073992378706	-0.22681541178341186	0.023	1.2307334547606492	-0.21665726487122475	0.2179	1.2564305411729195	-0.30498610248466035	0.1804	1.2338076399996918	-0.2694027399506253	-0.0119	1.987336225252109	0.5860345497662386	0.0301	1.6937508634078446	0.3647386672936473	0.129	1.6774453736974788	0.3377862390143728	0.023	1.6874111667120135	0.3870123578791428	0.2179	1.6692403974557743	0.39847144289700553	0.1804	1.6690357355629373	0.3103845170991098	-0.0119	2.5220093046445005	0.9488794098789354	0.0008	2.571297461919452	1.1147938939335482	0.0655	2.4943601321254354	1.030883812663977	0.1076	2.6265115960269663	0.7323409790255079	-0.01275	2.479435070275156	0.42209518358757464	0.0702	2.270897060251324	0.2756493517331944	0.1076	2.4016240332329652	1.0586116508376575	-0.01275	2.1319993254055745	0.9014235967808953	0.0702	2.065632222012139	0.881408629415259	0.1076
56	1.8714776632302406	2.0862729195180583	0.5098335975239775	0.0301	2.1427722019990876	0.3955346204754444	0.0301	1.6974114489190273	0.07807772828048783	0.129	1.2931737994967962	-0.22706507506933965	0.023	1.2255578519667565	-0.2219300377734413	0.2179	1.2601919544670572	-0.3141609590704816	0.1804	1.2308477958869026	-0.2666593697483138	-0.0119	1.9870818461128317	0.5865404486062038	0.0301	1.6945233174544416	0.3638428128351221	0.129	1.6759962931788848	0.33710095583959393	0.023	1.6919499928971802	0.3906272047706261	0.2179	1.6533142374565883	0.3844355845146026	0.1804	1.6638354628076397	0.30536985671962324	-0.0119	2.5214279993662636	0.9475529641496714	0.0008	2.5786226620047574	1.1109749575071701	0.0655	2.5025462150500553	1.0271373810910107	0.1076	2.624109440967293	0.730523570894915	-0.01275	2.4740540615883626	0.41889946787538196	0.0702	2.2682450822427747	0.27412319909235916	0.1076	2.3956881534180985	1.0573205583306748	-0.01275	2.127035888626746	0.9083028586201433	0.0702	2.0520474785812266	0.8811260090387346	0.1076
57	1.9048969072164947	2.0849585095394203	0.5098614025500477	0.0301	2.1421141222865256	0.3977500467096172	0.0301	1.697245570382519	0.0774799117642361	0.129	1.2940433224750894	-0.2269110935076832	0.023	1.221320282038013	-0.22611120925148218	0.2179	1.259696912064558	-0.3179604151532144	0.1804	1.233879657134768	-0.264041534364489	-0.0119	1.9874279586475625	0.5875519285869453	0.0301	1.6952506757099641	0.3621579355677054	0.129	1.669526251561079	0.33298635002164806	0.023	1.5973862208563923	0.2985173563874926	0.2179	1.5570704320395552	0.29651345852486	0.1804	1.6561671886253104	0.2986522283781618	-0.0119	2.519637037425358	0.9435704637770109	0.0008	2.584874752762734	1.1048768390952972	0.0655	2.515086527243101	1.0205706706937314	0.1076	2.622520549639443	0.7304546399310576	-0.01275	2.4693535438215775	0.4162718400375444	0.0702	2.268098674798462	0.2738545730120401	0.1076	2.3909397837609347	1.0559937643893733	-0.01275	2.116600668313744	0.9141301982423633	0.0702	2.0388090428212275	0.8840752384354106	0.1076
